{
  "accessors": [
    {
      "bufferView": 2,
      "componentType": 5126,
      "count": 65532,
      "max": [
        0.85377460718154907,
        -1.3589820861816406,
        0.67125940322875977
      ],
      "min": [
        -0.87563925981521606,
        -2.2266676425933838,
        -0.88313531875610352
      ],
      "type": "VEC3"
    },
    {
      "bufferView": 2,
      "byteOffset": 786384,
      "componentType": 5126,
      "count": 65532,
      "max": [
        0.9993211030960083,
        0.99995124340057373,
        0.99969363212585449
      ],
      "min": [
        -0.99997603893280029,
        -0.99999630451202393,
        -0.99999439716339111
      ],
      "type": "VEC3"
    },
    {
      "bufferView": 1,
      "componentType": 5126,
      "count": 65532,
      "max": [
        0.8750002384185791,
        1
      ],
      "min": [
        0.25260937213897705,
        -2.384185791015625e-07
      ],
      "type": "VEC2"
    },
    {
      "bufferView": 0,
      "componentType": 5125,
      "count": 381951,
      "max": [
        65531
      ],
      "min": [
        0
      ],
      "type": "SCALAR"
    },
    {
      "bufferView": 2,
      "byteOffset": 1572768,
      "componentType": 5126,
      "count": 36353,
      "max": [
        0.84869927167892456,
        -1.3595325946807861,
        0.83924716711044312
      ],
      "min": [
        -0.58425819873809814,
        -2.2278544902801514,
        -0.66882604360580444
      ],
      "type": "VEC3"
    },
    {
      "bufferView": 2,
      "byteOffset": 2009004,
      "componentType": 5126,
      "count": 36353,
      "max": [
        0.9956783652305603,
        0.99996674060821533,
        0.99997961521148682
      ],
      "min": [
        -0.99987185001373291,
        -0.99999642372131348,
        -0.99997460842132568
      ],
      "type": "VEC3"
    },
    {
      "bufferView": 1,
      "byteOffset": 524256,
      "componentType": 5126,
      "count": 36353,
      "max": [
        0.8750002384185791,
        0.53792059421539307
      ],
      "min": [
        0.125,
        -2.384185791015625e-07
      ],
      "type": "VEC2"
    },
    {
      "bufferView": 0,
      "byteOffset": 1527804,
      "componentType": 5125,
      "count": 207873,
      "max": [
        36352
      ],
      "min": [
        0
      ],
      "type": "SCALAR"
    },
    {
      "bufferView": 2,
      "byteOffset": 2445240,
      "componentType": 5126,
      "count": 82,
      "max": [
        1,
        1.4524192810058594,
        1
      ],
      "min": [
        -1,
        0,
        -1
      ],
      "type": "VEC3"
    },
    {
      "bufferView": 2,
      "byteOffset": 2446224,
      "componentType": 5126,
      "count": 82,
      "max": [
        0,
        1,
        -0
      ],
      "min": [
        -1,
        0,
        -1
      ],
      "type": "VEC3"
    },
    {
      "bufferView": 1,
      "byteOffset": 815080,
      "componentType": 5126,
      "count": 82,
      "max": [
        1,
        1
      ],
      "min": [
        0,
        0
      ],
      "type": "VEC2"
    },
    {
      "bufferView": 0,
      "byteOffset": 2359296,
      "componentType": 5125,
      "count": 318,
      "max": [
        81
      ],
      "min": [
        0
      ],
      "type": "SCALAR"
    }
  ],
  "asset": {
    "extras": {
      "author": "SabasGT (https://sketchfab.com/sabasgme)",
      "license": "CC-BY-4.0 (http://creativecommons.org/licenses/by/4.0/)",
      "source": "https://sketchfab.com/3d-models/velvet-bean-bag-25f0b058cd2342fa9dfdf41c9df5fc82",
      "title": "Velvet Bean Bag"
    },
    "generator": "Sketchfab-8.49.0",
    "version": "2.0"
  },
  "bufferViews": [
    {
      "buffer": 0,
      "byteLength": 2360568,
      "byteOffset": 0,
      "name": "floatBufferViews",
      "target": 34963
    },
    {
      "buffer": 0,
      "byteLength": 815736,
      "byteOffset": 2360568,
      "byteStride": 8,
      "name": "floatBufferViews",
      "target": 34962
    },
    {
      "buffer": 0,
      "byteLength": 2447208,
      "byteOffset": 3176304,
      "byteStride": 12,
      "name": "floatBufferViews",
      "target": 34962
    }
  ],
  "buffers": [
    {
      "byteLength": 5623512,
      "uri": "scene.bin"
    }
  ],
  "extensionsRequired": [
    "KHR_materials_pbrSpecularGlossiness"
  ],
  "extensionsUsed": [
    "KHR_materials_pbrSpecularGlossiness"
  ],
  "materials": [
    {
      "doubleSided": true,
      "extensions": {
        "KHR_materials_pbrSpecularGlossiness": {
          "diffuseFactor": [
            0.095307466630964663,
            0,
            0.0036765073240474446,
            1
          ],
          "glossinessFactor": 0,
          "specularFactor": [
            0,
            0,
            0
          ]
        }
      },
      "name": "Material.001"
    },
    {
      "doubleSided": true,
      "emissiveFactor": [
        0,
        0,
        0
      ],
      "extensions": {
        "KHR_materials_pbrSpecularGlossiness": {
          "diffuseFactor": [
            0.017605099999999999,
            0.030691099999999999,
            0.046961500000000003,
            1
          ],
          "glossinessFactor": 0.099999999999999978,
          "specularFactor": [
            0,
            0,
            0
          ]
        }
      },
      "name": "Piso_2"
    }
  ],
  "meshes": [
    {
      "primitives": [
        {
          "attributes": {
            "NORMAL": 1,
            "POSITION": 0,
            "TEXCOORD_0": 2
          },
          "indices": 3,
          "material": 0,
          "mode": 4
        }
      ]
    },
    {
      "primitives": [
        {
          "attributes": {
            "NORMAL": 5,
            "POSITION": 4,
            "TEXCOORD_0": 6
          },
          "indices": 7,
          "material": 0,
          "mode": 4
        }
      ]
    },
    {
      "primitives": [
        {
          "attributes": {
            "NORMAL": 9,
            "POSITION": 8,
            "TEXCOORD_0": 10
          },
          "indices": 11,
          "material": 1,
          "mode": 4
        }
      ]
    }
  ],
  "nodes": [
    {
      "children": [
        1
      ],
      "name": "RootNode (gltf orientation matrix)",
      "rotation": [
        -0.70710678118654746,
        -0,
        -0,
        0.70710678118654757
      ]
    },
    {
      "children": [
        2
      ],
      "name": "RootNode (model correction matrix)"
    },
    {
      "children": [
        3
      ],
      "name": "root"
    },
    {
      "children": [
        4,
        7
      ],
      "matrix": [
        1,
        0,
        0,
        0,
        0,
        2.2204460492503131e-16,
        1,
        0,
        0,
        -1,
        2.2204460492503131e-16,
        0,
        0,
        0,
        0,
        1
      ],
      "name": "GLTF_SceneRootNode"
    },
    {
      "children": [
        5,
        6
      ],
      "matrix": [
        1,
        0,
        0,
        0,
        0,
        1,
        0,
        0,
        0,
        0,
        1,
        0,
        0,
        2.2291626930236816,
        0,
        1
      ],
      "name": "Puff 2_0"
    },
    {
      "mesh": 0,
      "name": ""
    },
    {
      "mesh": 1,
      "name": ""
    },
    {
      "children": [
        8
      ],
      "matrix": [
        5,
        0,
        0,
        0,
        0,
        5,
        0,
        0,
        0,
        0,
        5,
        0,
        0,
        0,
        0,
        1
      ],
      "name": "Plane.003_1"
    },
    {
      "mesh": 2,
      "name": ""
    }
  ],
  "scene": 0,
  "scenes": [
    {
      "name": "OSG_Scene",
      "nodes": [
        0
      ]
    }
  ]
}

